<?xml version="1.0" encoding="utf-8"?>
<!-- Generator: Adobe Illustrator 16.0.0, SVG Export Plug-In . SVG Version: 6.00 Build 0)  -->
<!DOCTYPE svg PUBLIC "-//W3C//DTD SVG 1.1//EN" "http://www.w3.org/Graphics/SVG/1.1/DTD/svg11.dtd">
<svg version="1.1" id="Layer_1" xmlns="http://www.w3.org/2000/svg" xmlns:xlink="http://www.w3.org/1999/xlink" x="0px" y="0px"
	 width="9.335px" height="15.52px" viewBox="0 0 9.335 15.52" enable-background="new 0 0 9.335 15.52" xml:space="preserve">
<path d="M4.667,7.857c2.17,0,3.93-1.76,3.93-3.93S6.837,0,4.667,0C2.498,0,0.74,1.758,0.74,3.928S2.498,7.857,4.667,7.857z
	 M4.667,1.996c1.068,0,1.934,0.865,1.934,1.932S5.735,5.861,4.667,5.861c-1.065,0-1.932-0.867-1.932-1.934S3.602,1.996,4.667,1.996z
	 M9.195,8.334C8.974,7.891,8.36,7.52,7.544,8.162C6.439,9.031,4.667,9.031,4.667,9.031s-1.772,0-2.876-0.869
	C0.976,7.52,0.361,7.891,0.14,8.334c-0.387,0.777,0.049,1.152,1.037,1.787c0.841,0.539,1.998,0.742,2.744,0.816l-0.623,0.625
	c-0.879,0.877-1.726,1.727-2.314,2.314c-0.353,0.352-0.353,0.922,0,1.273l0.107,0.107c0.352,0.35,0.92,0.35,1.272,0l2.313-2.316
	c0.88,0.879,1.729,1.727,2.315,2.316c0.353,0.35,0.922,0.35,1.274,0l0.105-0.107c0.353-0.352,0.353-0.922,0-1.273l-2.314-2.314
	l-0.626-0.627c0.748-0.076,1.893-0.279,2.729-0.814C9.145,9.486,9.581,9.111,9.195,8.334z"/>
</svg>
