<?xml version="1.0" encoding="utf-8"?>
<!-- Generator: Adobe Illustrator 16.0.0, SVG Export Plug-In . SVG Version: 6.00 Build 0)  -->
<!DOCTYPE svg PUBLIC "-//W3C//DTD SVG 1.1//EN" "http://www.w3.org/Graphics/SVG/1.1/DTD/svg11.dtd">
<svg version="1.1" id="Layer_1" xmlns="http://www.w3.org/2000/svg" xmlns:xlink="http://www.w3.org/1999/xlink" x="0px" y="0px"
	 width="22.863px" height="13.063px" viewBox="0 0 22.863 13.063" enable-background="new 0 0 22.863 13.063" xml:space="preserve">
<path fill-rule="evenodd" clip-rule="evenodd" d="M19.028,13.063c-0.186,0-0.32-0.016-0.446-0.057
	c-0.589-0.18-1.173-0.541-1.694-1.045c-0.212-0.205-0.396-0.449-0.593-0.707c-0.261-0.342-0.528-0.697-0.892-0.994
	c-0.198-0.166-0.604-0.443-1.066-0.443c-0.431,0-0.781,0.234-0.986,0.662c-0.2,0.42-0.213,0.875-0.224,1.277
	c-0.005,0.199-0.009,0.387-0.035,0.553c-0.069,0.439-0.305,0.73-1.229,0.73c-0.315,0-0.645-0.033-0.964-0.066
	c-0.172-0.018-0.337-0.033-0.489-0.045c-1.48-0.342-2.803-0.715-4.004-1.746C5.194,10.139,4.257,8.83,3.576,7.809
	C2.806,6.654,2.097,5.443,1.404,4.105C1.302,3.902,1.192,3.703,1.077,3.49C0.595,2.604,0.097,1.689,0,0.793
	c0.21-0.08,0.444-0.115,0.728-0.115c0.207,0,0.428,0.02,0.613,0.039c0.113,0.01,0.23,0.016,0.357,0.016
	c0.278,0,0.555-0.027,0.82-0.055c0.238-0.023,0.463-0.047,0.677-0.049h0.043c0.533,0,0.771,0.113,0.936,0.449
	C4.308,1.354,4.427,1.635,4.553,1.93c0.15,0.355,0.305,0.721,0.492,1.078c0.266,0.51,0.569,0.994,0.861,1.465
	C6,4.625,6.094,4.775,6.187,4.928C6.233,5.004,6.282,5.086,6.331,5.17C6.638,5.688,6.985,6.275,7.53,6.639
	C7.724,6.77,7.921,6.836,8.11,6.836c1.088,0,1.145-1.807,1.176-2.887c0.006-0.123,0.009-0.238,0.013-0.287
	c0.089-0.93,0.076-2.576-0.973-3.17C8.239,0.443,8.152,0.4,8.065,0.361C8.28,0.244,8.522,0.168,8.774,0.143
	c0.021-0.004,0.061-0.004,0.12-0.004h0.197c0.207,0,0.381-0.008,0.526-0.045c0.068,0.008,0.134,0.008,0.188,0.008
	c0.152,0,0.359,0,0.525-0.066C10.613,0.018,10.923,0,11.233,0c0.981,0,1.554,0.174,1.697,0.514c0.175,0.416,0.15,0.85,0.122,1.354
	c-0.007,0.121-0.013,0.244-0.018,0.367c-0.011,0.334-0.041,0.664-0.074,1.012c-0.034,0.35-0.069,0.709-0.08,1.07
	c-0.018,0.545,0.002,1.34,0.377,1.936c0.259,0.412,0.599,0.473,0.78,0.473c0.473,0,0.963-0.393,1.454-1.17
	c0.15-0.238,0.312-0.463,0.479-0.701c0.271-0.381,0.552-0.775,0.785-1.225c0.352-0.668,0.638-1.295,0.879-1.916
	c0.023-0.059,0.046-0.123,0.07-0.191c0.098-0.266,0.263-0.709,0.441-0.797c0.187-0.09,0.454-0.133,0.816-0.133
	c0.19,0,0.376,0.01,0.555,0.021l0.039,0.002c0.149,0.008,0.298,0.027,0.455,0.045c0.228,0.027,0.459,0.057,0.705,0.057
	c0.176,0,0.339-0.016,0.496-0.045c0.133-0.002,0.273-0.012,0.422-0.023c0.178-0.014,0.359-0.025,0.535-0.025
	c0.351,0,0.576,0.057,0.668,0.168c0.063,0.074,0.035,0.506-0.441,1.301c-0.468,0.775-1.001,1.496-1.413,2.039
	C20.865,4.287,20.748,4.443,20.63,4.6c-0.313,0.418-0.637,0.85-0.966,1.262c-0.261,0.326-1.058,1.32-0.547,2.232
	c0.148,0.262,0.494,0.609,1.147,1.252c0.581,0.574,1.306,1.289,1.836,1.953c0.749,0.936,0.729,1.299,0.706,1.387
	c-0.033,0.123-0.246,0.197-0.37,0.229c-0.524,0.139-0.969,0.139-1.704,0.139c-0.085,0-0.167-0.002-0.25-0.002
	c-0.109,0-0.22,0.002-0.329,0.002c-0.106,0.002-0.213,0.002-0.319,0.002c-0.077,0-0.155,0-0.235-0.002c-0.028,0-0.057,0-0.083,0
	c-0.089,0-0.176,0.002-0.261,0.006C19.181,13.061,19.104,13.063,19.028,13.063z"/>
</svg>
