<?xml version="1.0" encoding="utf-8"?>
<!-- Generator: Adobe Illustrator 16.0.0, SVG Export Plug-In . SVG Version: 6.00 Build 0)  -->
<!DOCTYPE svg PUBLIC "-//W3C//DTD SVG 1.1//EN" "http://www.w3.org/Graphics/SVG/1.1/DTD/svg11.dtd">
<svg version="1.1" id="Layer_1" xmlns="http://www.w3.org/2000/svg" xmlns:xlink="http://www.w3.org/1999/xlink" x="0px" y="0px"
	 width="17.006px" height="14.693px" viewBox="0 0 17.006 14.693" enable-background="new 0 0 17.006 14.693" xml:space="preserve">
<path d="M15.766,0.163L0.66,6.089c0,0-0.714,0.244-0.657,0.695s0.639,0.658,0.639,0.658l3.801,1.279c0,0,1.146,3.762,1.373,4.477
	c0.225,0.715,0.407,0.732,0.407,0.732c0.209,0.09,0.4-0.055,0.4-0.055l2.455-2.238l3.827,2.934c1.036,0.451,1.412-0.49,1.412-0.49
	l2.688-13.561C17.006-0.382,15.766,0.163,15.766,0.163z M13.885,3.247C13.602,3.511,6.719,9.7,6.719,9.7l-0.361,3.074L5.02,8.354
	l8.544-5.426c0,0,0.528-0.32,0.509,0C14.072,2.929,14.166,2.985,13.885,3.247z" fill="#808080"/>
</svg>
