<?xml version="1.0" encoding="utf-8"?>
<!-- Generator: Adobe Illustrator 16.0.0, SVG Export Plug-In . SVG Version: 6.00 Build 0)  -->
<!DOCTYPE svg PUBLIC "-//W3C//DTD SVG 1.1//EN" "http://www.w3.org/Graphics/SVG/1.1/DTD/svg11.dtd">
<svg version="1.1" id="Layer_1" xmlns="http://www.w3.org/2000/svg" xmlns:xlink="http://www.w3.org/1999/xlink" x="0px" y="0px"
	 width="15.522px" height="15.52px" viewBox="0 0 15.522 15.52" enable-background="new 0 0 15.522 15.52" xml:space="preserve">
<g>
	<g>
		<path d="M7.762,1.398c2.072,0,2.316,0.008,3.134,0.045c0.76,0.035,1.169,0.162,1.443,0.268c0.36,0.141,0.62,0.309,0.892,0.58
			c0.273,0.271,0.439,0.531,0.58,0.893c0.105,0.273,0.233,0.684,0.27,1.441c0.036,0.818,0.045,1.063,0.045,3.135
			s-0.009,2.318-0.045,3.137c-0.036,0.756-0.164,1.168-0.27,1.439c-0.141,0.363-0.307,0.621-0.58,0.895
			c-0.271,0.27-0.531,0.439-0.892,0.578c-0.274,0.107-0.684,0.234-1.443,0.268c-0.817,0.037-1.062,0.045-3.134,0.045
			s-2.317-0.008-3.136-0.045c-0.757-0.033-1.166-0.16-1.441-0.268C2.823,13.67,2.565,13.5,2.292,13.23
			c-0.271-0.273-0.44-0.531-0.58-0.895c-0.106-0.271-0.232-0.684-0.267-1.439C1.408,10.078,1.4,9.832,1.4,7.76
			s0.008-2.316,0.045-3.135c0.034-0.758,0.16-1.168,0.267-1.441c0.14-0.361,0.31-0.621,0.58-0.893
			c0.273-0.271,0.531-0.439,0.893-0.58C3.46,1.605,3.869,1.479,4.626,1.443C5.444,1.406,5.689,1.398,7.762,1.398 M7.762,0
			C5.653,0,5.389,0.01,4.563,0.047S3.172,0.215,2.679,0.408C2.168,0.605,1.735,0.871,1.304,1.303
			C0.873,1.734,0.606,2.166,0.408,2.678C0.218,3.17,0.087,3.734,0.05,4.561C0.011,5.389,0,5.652,0,7.76s0.011,2.371,0.05,3.199
			c0.037,0.826,0.168,1.391,0.358,1.885c0.198,0.51,0.465,0.943,0.896,1.373c0.432,0.432,0.864,0.697,1.375,0.896
			c0.493,0.191,1.058,0.322,1.884,0.361c0.826,0.037,1.091,0.045,3.199,0.045c2.109,0,2.372-0.008,3.2-0.045
			c0.825-0.039,1.39-0.17,1.884-0.361c0.51-0.199,0.942-0.465,1.374-0.896c0.432-0.43,0.696-0.863,0.896-1.373
			c0.191-0.494,0.32-1.059,0.361-1.885c0.036-0.828,0.046-1.092,0.046-3.199s-0.01-2.371-0.046-3.199
			c-0.041-0.826-0.17-1.391-0.361-1.883c-0.199-0.512-0.464-0.943-0.896-1.375s-0.864-0.697-1.374-0.895
			c-0.494-0.193-1.059-0.324-1.884-0.361C10.134,0.01,9.871,0,7.762,0"/>
		<path d="M7.762,3.775c-2.201,0-3.984,1.783-3.984,3.984s1.783,3.986,3.984,3.986c2.202,0,3.984-1.785,3.984-3.986
			S9.964,3.775,7.762,3.775 M7.762,10.348c-1.428,0-2.588-1.158-2.588-2.588c0-1.428,1.16-2.586,2.588-2.586S10.35,6.332,10.35,7.76
			C10.35,9.189,9.189,10.348,7.762,10.348"/>
		<path d="M12.837,3.617c0,0.514-0.418,0.932-0.934,0.932c-0.514,0-0.932-0.418-0.932-0.932s0.418-0.93,0.932-0.93
			C12.419,2.688,12.837,3.104,12.837,3.617"/>
	</g>
</g>
</svg>
