<?xml version="1.0" encoding="utf-8"?>
<!-- Generator: Adobe Illustrator 16.0.0, SVG Export Plug-In . SVG Version: 6.00 Build 0)  -->
<!DOCTYPE svg PUBLIC "-//W3C//DTD SVG 1.1//EN" "http://www.w3.org/Graphics/SVG/1.1/DTD/svg11.dtd">
<svg version="1.1" id="Layer_1" xmlns="http://www.w3.org/2000/svg" xmlns:xlink="http://www.w3.org/1999/xlink" x="0px" y="0px"
	 width="15.466px" height="15.467px" viewBox="0 0 15.466 15.467" enable-background="new 0 0 15.466 15.467" xml:space="preserve">
<path fill="#000000" d="M15.466,14.76l-3.03-3.03c1.122-1.289,1.74-2.917,1.74-4.642c0-1.894-0.737-3.673-2.077-5.011
	C10.761,0.738,8.98,0,7.087,0S3.415,0.738,2.076,2.077C0.737,3.415,0,5.195,0,7.088c0,1.893,0.737,3.673,2.076,5.012
	c1.338,1.339,3.118,2.077,5.011,2.077c1.725,0,3.353-0.619,4.642-1.741l3.03,3.03L15.466,14.76z M2.783,11.394
	C1.633,10.244,1,8.714,1,7.088c0-1.626,0.633-3.155,1.783-4.304C3.933,1.634,5.461,1,7.087,1s3.155,0.634,4.305,1.784
	c1.15,1.149,1.784,2.678,1.784,4.304c0,1.626-0.633,3.155-1.784,4.306s-2.679,1.784-4.305,1.784S3.933,12.544,2.783,11.394z"/>
</svg>
