<?xml version="1.0" encoding="utf-8"?>
<!-- Generator: Adobe Illustrator 16.0.0, SVG Export Plug-In . SVG Version: 6.00 Build 0)  -->
<!DOCTYPE svg PUBLIC "-//W3C//DTD SVG 1.1//EN" "http://www.w3.org/Graphics/SVG/1.1/DTD/svg11.dtd">
<svg version="1.1" id="Layer_1" xmlns="http://www.w3.org/2000/svg" xmlns:xlink="http://www.w3.org/1999/xlink" x="0px" y="0px"
	 width="21px" height="21px" viewBox="0 0 21 21" enable-background="new 0 0 21 21" xml:space="preserve">
<g>
	<g>
		<path fill="#ED1C24" d="M9.953,15.251c-0.294-0.295-0.294-0.799,0-1.094c0.294-0.293,0.799-0.293,1.093,0
			c0.294,0.295,0.294,0.799,0,1.094C10.752,15.544,10.247,15.544,9.953,15.251z M10.149,12.673l-0.21-4.342V5.529h1.12v2.802
			l-0.21,4.342H10.149z"/>
	</g>
	<path fill="#ED1C24" d="M10.5,21C4.71,21,0,16.29,0,10.5S4.71,0,10.5,0S21,4.71,21,10.5S16.29,21,10.5,21z M10.5,1
		C5.262,1,1,5.262,1,10.5S5.262,20,10.5,20s9.5-4.262,9.5-9.5S15.738,1,10.5,1z"/>
</g>
</svg>
