<?xml version="1.0" encoding="utf-8"?>
<!-- Generator: Adobe Illustrator 16.0.0, SVG Export Plug-In . SVG Version: 6.00 Build 0)  -->
<!DOCTYPE svg PUBLIC "-//W3C//DTD SVG 1.1//EN" "http://www.w3.org/Graphics/SVG/1.1/DTD/svg11.dtd">
<svg version="1.1" id="Layer_1" xmlns="http://www.w3.org/2000/svg" xmlns:xlink="http://www.w3.org/1999/xlink" x="0px" y="0px"
	 width="21.5px" height="21.501px" viewBox="0 0 21.5 21.501" enable-background="new 0 0 21.5 21.501" xml:space="preserve">
<path d="M11.811,10.751l9.469-9.47c0.293-0.293,0.293-0.768,0-1.061s-0.768-0.293-1.061,0L10.75,9.69L1.28,0.22
	c-0.293-0.293-0.768-0.293-1.061,0s-0.293,0.768,0,1.061l9.47,9.471l-9.47,9.47c-0.293,0.293-0.293,0.768,0,1.061
	c0.146,0.146,0.338,0.22,0.53,0.22s0.384-0.073,0.53-0.22l9.47-9.47l9.469,9.469c0.146,0.146,0.338,0.22,0.53,0.22
	s0.384-0.073,0.53-0.22c0.293-0.293,0.293-0.768,0-1.061L11.811,10.751z"/>
</svg>
