<?xml version="1.0" encoding="utf-8"?>
<!-- Generator: Adobe Illustrator 16.0.0, SVG Export Plug-In . SVG Version: 6.00 Build 0)  -->
<!DOCTYPE svg PUBLIC "-//W3C//DTD SVG 1.1//EN" "http://www.w3.org/Graphics/SVG/1.1/DTD/svg11.dtd">
<svg version="1.1" id="Layer_1" xmlns="http://www.w3.org/2000/svg" xmlns:xlink="http://www.w3.org/1999/xlink" x="0px" y="0px"
	 width="15.997px" height="16px" viewBox="0 0 15.997 16" enable-background="new 0 0 15.997 16" xml:space="preserve">
<g>
	<g>
		<path fill-rule="evenodd" clip-rule="evenodd" d="M15.994,7.596C15.888,3.383,12.415,0,8.145,0C3.924,0,0.481,3.305,0.298,7.453
			C0.294,7.566,0.29,7.68,0.29,7.795c0,1.475,0.411,2.848,1.125,4.025L0,16l4.349-1.383c1.125,0.619,2.421,0.971,3.796,0.971
			c4.337,0,7.853-3.488,7.853-7.793C15.997,7.729,15.997,7.662,15.994,7.596z M8.145,14.346c-1.342,0-2.589-0.396-3.632-1.084
			L1.975,14.07l0.822-2.434C2.007,10.555,1.54,9.229,1.54,7.795c0-0.215,0.013-0.428,0.035-0.637
			c0.321-3.316,3.146-5.916,6.569-5.916c3.466,0,6.314,2.666,6.58,6.041c0.016,0.17,0.022,0.338,0.022,0.512
			C14.747,11.408,11.783,14.346,8.145,14.346z"/>
		<path fill-rule="evenodd" clip-rule="evenodd" d="M11.744,9.367c-0.195-0.096-1.142-0.559-1.316-0.621
			C10.25,8.68,10.122,8.65,9.993,8.842C9.865,9.033,9.494,9.463,9.382,9.588C9.27,9.717,9.158,9.732,8.964,9.637
			C8.772,9.541,8.151,9.342,7.416,8.688c-0.569-0.504-0.959-1.129-1.07-1.32c-0.11-0.189-0.011-0.293,0.085-0.389
			C6.52,6.891,6.622,6.754,6.722,6.643C6.747,6.611,6.77,6.58,6.79,6.553c0.046-0.07,0.078-0.137,0.122-0.229
			c0.066-0.129,0.032-0.24-0.015-0.334C6.85,5.893,6.464,4.953,6.303,4.57C6.145,4.188,5.981,4.254,5.868,4.254
			c-0.11,0-0.239-0.02-0.367-0.02c-0.129,0-0.34,0.049-0.516,0.24S4.313,5.129,4.313,6.07c0,0.221,0.04,0.441,0.1,0.65
			C4.606,7.393,5.026,7.949,5.1,8.045c0.096,0.125,1.331,2.117,3.286,2.885c1.96,0.762,1.96,0.508,2.313,0.475
			c0.354-0.029,1.141-0.459,1.299-0.908c0.161-0.445,0.161-0.826,0.112-0.908C12.063,9.512,11.935,9.463,11.744,9.367z"/>
	</g>
</g>
</svg>
